<?xml version="1.0" encoding="UTF-8"?>
<svg version="1.1" xmlns="http://www.w3.org/2000/svg" width="225" height="225">
<rect width="225" height="225" fill="#ffffff"/>
<path d="M0 0 C1.12535156 0.00580078 1.12535156 0.00580078 2.2734375 0.01171875 C3.02367188 0.00785156 3.77390625 0.00398437 4.546875 0 C10.14682697 0.01010822 10.14682697 0.01010822 11.2734375 1.13671875 C11.50771528 3.15266457 11.68679874 5.17519275 11.8359375 7.19921875 C11.96162109 8.85630859 11.96162109 8.85630859 12.08984375 10.546875 C12.15042969 11.40152344 12.21101563 12.25617188 12.2734375 13.13671875 C9.12762327 13.16560389 5.98184281 13.18347798 2.8359375 13.19921875 C1.48918945 13.21178711 1.48918945 13.21178711 0.11523438 13.22460938 C-1.16577148 13.22944336 -1.16577148 13.22944336 -2.47265625 13.234375 C-3.26341553 13.23961182 -4.0541748 13.24484863 -4.86889648 13.25024414 C-6.7265625 13.13671875 -6.7265625 13.13671875 -7.7265625 12.13671875 C-7.66263449 10.30024133 -7.52600521 8.46600983 -7.3515625 6.63671875 C-7.26132813 5.63640625 -7.17109375 4.63609375 -7.078125 3.60546875 C-6.42409026 -0.98730854 -4.17416634 0.0075346 0 0 Z " fill="#1C481C" transform="translate(108.7265625,166.86328125)"/>
<path d="M0 0 C0.35646629 7.06331359 0.26269404 13.56441083 -3 20 C-3.66 20.33 -4.32 20.66 -5 21 C-7.3828125 20.00390625 -7.3828125 20.00390625 -10.125 18.5625 C-11.03507813 18.08941406 -11.94515625 17.61632812 -12.8828125 17.12890625 C-13.58148438 16.75636719 -14.28015625 16.38382813 -15 16 C-14.69163768 13.87439563 -14.37818386 11.74952935 -14.0625 9.625 C-13.88847656 8.44164063 -13.71445313 7.25828125 -13.53515625 6.0390625 C-13 3 -13 3 -12 1 C-7.88769156 0.32585108 -4.16980357 0 0 0 Z " fill="#214C21" transform="translate(149,108)"/>
<path d="M0 0 C8.57142857 -0.14285714 8.57142857 -0.14285714 12 1 C12.20674944 6.78898419 11.59162079 11.42932723 10 17 C6.04 16.01 2.08 15.02 -2 14 C-1.0625 3.82142857 -1.0625 3.82142857 0 0 Z " fill="#234E23" transform="translate(168,114)"/>
<path d="M0 0 C0.60613909 3.98565046 0.74564735 7.97274969 1 12 C-3.29 12.99 -7.58 13.98 -12 15 C-16 6.375 -16 6.375 -16 3 C-3.003861 -1.5019305 -3.003861 -1.5019305 0 0 Z " fill="#234E23" transform="translate(104,46)"/>
<path d="M0 0 C1.265625 2.50390625 1.265625 2.50390625 2.25 5.5625 C2.58515625 6.57441406 2.9203125 7.58632812 3.265625 8.62890625 C3.62914062 9.80259766 3.62914062 9.80259766 4 11 C2.73168307 11.81642254 1.46024069 12.62799105 0.1875 13.4375 C-0.87404297 14.11619141 -0.87404297 14.11619141 -1.95703125 14.80859375 C-4 16 -4 16 -7 17 C-7.82011312 15.44148245 -8.63076213 13.87798284 -9.4375 12.3125 C-9.88996094 11.44238281 -10.34242187 10.57226562 -10.80859375 9.67578125 C-11.95991928 7.09001736 -12.56320753 4.78643472 -13 2 C-11.5882217 1.46605821 -10.17029756 0.94834896 -8.75 0.4375 C-7.96109375 0.14746094 -7.1721875 -0.14257812 -6.359375 -0.44140625 C-3.6845239 -1.07469053 -2.46044175 -1.25107208 0 0 Z " fill="#224D22" transform="translate(60,128)"/>
<path d="M0 0 C1.81495662 0.44850658 3.62693134 0.90909571 5.4375 1.375 C6.95150391 1.75785156 6.95150391 1.75785156 8.49609375 2.1484375 C11 3 11 3 12 5 C11.59255295 7.0571802 11.10151304 9.09831097 10.5625 11.125 C10.27503906 12.22070312 9.98757812 13.31640625 9.69140625 14.4453125 C9.46324219 15.28835937 9.23507813 16.13140625 9 17 C7.7625 17.020625 6.525 17.04125 5.25 17.0625 C4.55390625 17.07410156 3.8578125 17.08570312 3.140625 17.09765625 C0.96707597 16.99849799 -0.91306537 16.59693851 -3 16 C-2.88487847 14.27014758 -2.75744323 12.54111249 -2.625 10.8125 C-2.55539063 9.84957031 -2.48578125 8.88664062 -2.4140625 7.89453125 C-1.99784147 4.98491062 -1.20125904 2.67109226 0 0 Z " fill="#224D22" transform="translate(48,92)"/>
<path d="M0 0 C1.32972073 4.98645274 1.06829634 9.87777466 1 15 C-2.96 15 -6.92 15 -11 15 C-11.66 10.71 -12.32 6.42 -13 2 C-3.89285714 -1.34821429 -3.89285714 -1.34821429 0 0 Z " fill="#204C20" transform="translate(179,97)"/>
<path d="M0 0 C10.55808656 1.92710706 10.55808656 1.92710706 15 4 C14.45660208 8.56454251 13.20536179 11.9728176 11 16 C5.06 14.515 5.06 14.515 -1 13 C-1.96697501 9.13209997 -1.979595 7.91837998 -1.0625 4.25 C-0.86785156 3.45078125 -0.67320313 2.6515625 -0.47265625 1.828125 C-0.31667969 1.22484375 -0.16070312 0.6215625 0 0 Z " fill="#214C21" transform="translate(125,46)"/>
<path d="M0 0 C0.67119549 1.4562545 1.33681807 2.91507867 2 4.375 C2.556875 5.59316406 2.556875 5.59316406 3.125 6.8359375 C4 9 4 9 4 11 C2.27709395 11.70304222 0.54632534 12.38683491 -1.1875 13.0625 C-2.15042969 13.44535156 -3.11335937 13.82820312 -4.10546875 14.22265625 C-7 15 -7 15 -12 14 C-12.33 10.37 -12.66 6.74 -13 3 C-4.5 0 -4.5 0 0 0 Z " fill="#204B20" transform="translate(135,164)"/>
<path d="M0 0 C3.87480341 1.52687421 6.84153662 4.27443806 10.1015625 6.828125 C8.1215625 10.458125 6.1415625 14.088125 4.1015625 17.828125 C-6.2109375 11.80133929 -6.2109375 11.80133929 -8.8984375 8.828125 C-7.3928769 5.13265808 -4.47776466 -0.40539433 0 0 Z " fill="#204B20" transform="translate(75.8984375,154.171875)"/>
<path d="M0 0 C1.43793392 0.31049726 2.8753318 0.6234776 4.3125 0.9375 C5.51326172 1.19853516 5.51326172 1.19853516 6.73828125 1.46484375 C9 2 9 2 12 3 C10.34292168 8.64913063 8.52237988 13.26300637 5 18 C3.51478323 17.24088921 2.03696575 16.46728766 0.5625 15.6875 C-0.26121094 15.25824219 -1.08492187 14.82898438 -1.93359375 14.38671875 C-4 13 -4 13 -5 10 C-4.00390625 7.51953125 -4.00390625 7.51953125 -2.5625 4.8125 C-2.08941406 3.91144531 -1.61632812 3.01039063 -1.12890625 2.08203125 C-0.75636719 1.39496094 -0.38382813 0.70789063 0 0 Z " fill="#204B20" transform="translate(165,130)"/>
<path d="M0 0 C3.96 0 7.92 0 12 0 C12.90753484 4.5376742 12.94960144 6.48135767 12.0625 10.8125 C11.86785156 11.78832031 11.67320312 12.76414062 11.47265625 13.76953125 C11.31667969 14.50558594 11.16070312 15.24164063 11 16 C6.51311093 15.4721307 3.26272499 14.70509 -1 13 C-0.67 8.71 -0.34 4.42 0 0 Z " fill="#255025" transform="translate(152,112)"/>
<path d="M0 0 C4.82360189 -0.19294408 8.49646738 0.24252386 13 2 C13.33 5.63 13.66 9.26 14 13 C10.04 14.32 6.08 15.64 2 17 C0.38687662 12.16062987 -0.24163445 9.90701244 -0.125 5.125 C-0.10695313 4.15820312 -0.08890625 3.19140625 -0.0703125 2.1953125 C-0.04710938 1.47085938 -0.02390625 0.74640625 0 0 Z " fill="#255025" transform="translate(76,108)"/>
<path d="M0 0 C2.65410298 2.65410298 3.76102327 4.14286119 5.25 7.4375 C5.60578125 8.19933594 5.9615625 8.96117188 6.328125 9.74609375 C7.08338373 12.27972334 6.87351072 13.54185126 6 16 C2.12315913 17.19287411 -0.91621923 18 -5 18 C-6.65 14.04 -8.3 10.08 -10 6 C-6.7 4.02 -3.4 2.04 0 0 Z " fill="#204B20" transform="translate(170,78)"/>
<path d="M0 0 C3.96 1.32 7.92 2.64 12 4 C11.125 12.625 11.125 12.625 10 16 C4.33895411 15.50341703 0.12325529 14.45489316 -5 12 C-4.42365861 7.24518354 -2.44931479 4.02951788 0 0 Z " fill="#1F4B1F" transform="translate(88,162)"/>
<path d="M0 0 C1.66666667 1.66666667 3.33333333 3.33333333 5 5 C5.598125 5.53625 6.19625 6.0725 6.8125 6.625 C8 8 8 8 8 11 C5.69921875 12.82421875 5.69921875 12.82421875 2.6875 14.6875 C1.20830078 15.62142578 1.20830078 15.62142578 -0.30078125 16.57421875 C-3 18 -3 18 -6 18 C-6.69937202 16.5682384 -7.38412718 15.12932968 -8.0625 13.6875 C-8.44535156 12.88699219 -8.82820312 12.08648437 -9.22265625 11.26171875 C-10 9 -10 9 -9 6 C-6.93359375 4.39453125 -6.93359375 4.39453125 -4.4375 2.8125 C-3.61121094 2.28269531 -2.78492188 1.75289062 -1.93359375 1.20703125 C-1.29550781 0.80871094 -0.65742188 0.41039062 0 0 Z " fill="#1F4B1F" transform="translate(147,155)"/>
<path d="M0 0 C0.43836404 7.15994591 -1.37959354 12.49951612 -6 18 C-9.82792868 16.4404735 -12.36359864 14.16368164 -15 11 C-14.9375 9.0625 -14.9375 9.0625 -14 7 C-13.649375 5.9275 -13.29875 4.855 -12.9375 3.75 C-12.4734375 2.38875 -12.4734375 2.38875 -12 1 C-10.56274129 0.83126522 -9.12518162 0.66509263 -7.6875 0.5 C-6.88699219 0.4071875 -6.08648437 0.314375 -5.26171875 0.21875 C-3 0 -3 0 0 0 Z " fill="#214C21" transform="translate(134,110)"/>
<path d="M0 0 C3.96 0 7.92 0 12 0 C12.33 4.62 12.66 9.24 13 14 C8.73383684 15.13764351 5.43513689 16 1 16 C-0.25168929 10.6088658 -0.06648892 5.51858026 0 0 Z " fill="#1E4A1E" transform="translate(45,111)"/>
<path d="M0 0 C3.96 0.33 7.92 0.66 12 1 C12 5.29 12 9.58 12 14 C7.8803623 15.29243536 4.33168317 16.26252625 0 16 C-1.24581251 11.17247654 -2.29771645 4.59543291 0 0 Z " fill="#244F24" transform="translate(61,106)"/>
<path d="M0 0 C11.875 0.875 11.875 0.875 13 2 C13.07244053 4.01964199 13.08377188 6.04167124 13.0625 8.0625 C13.05347656 9.16722656 13.04445313 10.27195313 13.03515625 11.41015625 C13.02355469 12.26480469 13.01195313 13.11945313 13 14 C7.22192976 14.2358396 2.48675196 13.86783046 -3 12 C-2.01 8.04 -1.02 4.08 0 0 Z " fill="#244E24" transform="translate(104,151)"/>
<path d="M0 0 C5.445 1.485 5.445 1.485 11 3 C10.67 7.29 10.34 11.58 10 16 C4.11909513 14.96686806 -0.77592168 14.0244664 -6 11 C-4.74194623 6.49197399 -3.09592835 3.5087188 0 0 Z " fill="#234E23" transform="translate(99,133)"/>
<path d="M0 0 C1.1653125 -0.00257812 2.330625 -0.00515625 3.53125 -0.0078125 C6.5 0.125 6.5 0.125 8.5 1.125 C7.84 5.085 7.18 9.045 6.5 13.125 C2.54 13.125 -1.42 13.125 -5.5 13.125 C-6.49 9.165 -7.48 5.205 -8.5 1.125 C-5.64804778 -0.30097611 -3.17538825 -0.0070252 0 0 Z " fill="#244E24" transform="translate(112.5,75.875)"/>
<path d="M0 0 C3.3 1.98 6.6 3.96 10 6 C8.68938409 10.23429756 7.05643741 14.07407404 5 18 C0.6822542 17.49202991 -3.03302114 16.80317221 -7 15 C-5.34292168 9.35086937 -3.52237988 4.73699363 0 0 Z " fill="#1E4A1E" transform="translate(56,75)"/>
<path d="M0 0 C0 4.29 0 8.58 0 13 C-6.435 13.495 -6.435 13.495 -13 14 C-13.99 10.04 -14.98 6.08 -16 2 C-10.34509154 0.77731709 -5.84044472 0 0 0 Z " fill="#234E23" transform="translate(114,60)"/>
<path d="M0 0 C0.55564871 2.28831672 1.09414974 4.58080365 1.625 6.875 C1.92664063 8.15117188 2.22828125 9.42734375 2.5390625 10.7421875 C2.69117188 11.81726563 2.84328125 12.89234375 3 14 C1 16 1 16 -1.6015625 16.1953125 C-4.40104167 16.13020833 -7.20052083 16.06510417 -10 16 C-10.66 12.04 -11.32 8.08 -12 4 C-4.5 0 -4.5 0 0 0 Z " fill="#224D22" transform="translate(162,94)"/>
<path d="M0 0 C0.94921875 2.50390625 0.94921875 2.50390625 1.6875 5.5625 C1.93886719 6.57441406 2.19023438 7.58632812 2.44921875 8.62890625 C2.63097656 9.41136719 2.81273438 10.19382812 3 11 C1.76055724 11.86941494 0.50792941 12.72005457 -0.75 13.5625 C-1.44609375 14.03816406 -2.1421875 14.51382813 -2.859375 15.00390625 C-5 16 -5 16 -7.0625 15.84375 C-9.31675264 14.86205933 -10.57419955 13.72755957 -12.25 11.9375 C-12.77078125 11.38964844 -13.2915625 10.84179688 -13.828125 10.27734375 C-14.21484375 9.85582031 -14.6015625 9.43429688 -15 9 C-13.52519903 5.17551612 -11.54705088 3.74957636 -8.0625 1.6875 C-7.18722656 1.15511719 -6.31195313 0.62273437 -5.41015625 0.07421875 C-3 -1 -3 -1 0 0 Z " fill="#224D22" transform="translate(102,79)"/>
<path d="M0 0 C1.41875765 0.76697796 2.83491452 1.53876778 4.25 2.3125 C5.03890625 2.74175781 5.8278125 3.17101563 6.640625 3.61328125 C8.89727134 4.9396214 10.93998597 6.38884224 13 8 C12.49477778 12.37859255 9.82172778 14.81651224 7 18 C3.78147169 17.36934243 1.49198931 16.21979305 -1.25 14.4375 C-1.95640625 13.98246094 -2.6628125 13.52742188 -3.390625 13.05859375 C-3.92171875 12.70925781 -4.4528125 12.35992187 -5 12 C-3.68938409 7.76570244 -2.05643741 3.92592596 0 0 Z " fill="#1E491E" transform="translate(143,52)"/>
<path d="M0 0 C1.16796875 2.28515625 1.16796875 2.28515625 2.1875 5.0625 C2.53167969 5.98160156 2.87585938 6.90070312 3.23046875 7.84765625 C3.48441406 8.55792969 3.73835938 9.26820312 4 10 C2.42953257 11.06096463 0.84305483 12.09826235 -0.75 13.125 C-1.63171875 13.70507812 -2.5134375 14.28515625 -3.421875 14.8828125 C-6 16 -6 16 -8.18359375 15.328125 C-10.69358246 13.49286444 -12.31926342 11.61447913 -14 9 C-13.91015625 7.04296875 -13.91015625 7.04296875 -13 5 C-10.8203125 3.26171875 -10.8203125 3.26171875 -8.125 1.6875 C-7.24070312 1.15511719 -6.35640625 0.62273438 -5.4453125 0.07421875 C-3 -1 -3 -1 0 0 Z " fill="#1D491D" transform="translate(86,52)"/>
<path d="M0 0 C5.28 0 10.56 0 16 0 C15.67 4.29 15.34 8.58 15 13 C8.07 12.505 8.07 12.505 1 12 C0.67 8.04 0.34 4.08 0 0 Z " fill="#1C481C" transform="translate(106,45)"/>
<path d="M0 0 C1.65 3.63 3.3 7.26 5 11 C-0.4679847 13.60780809 -4.96561558 15.48643537 -11 16 C-11.33 12.04 -11.66 8.08 -12 4 C-2.25 0 -2.25 0 0 0 Z " fill="#214C21" transform="translate(131,148)"/>
<path d="M0 0 C1.65 3.96 3.3 7.92 5 12 C0.05 14.97 0.05 14.97 -5 18 C-7.88009002 15.11990998 -8.77443853 13.61362543 -10.1875 9.9375 C-10.53167969 9.05964844 -10.87585937 8.18179688 -11.23046875 7.27734375 C-12 5 -12 5 -12 3 C-10.37604003 2.49663233 -8.75079459 1.99741024 -7.125 1.5 C-6.22007813 1.2215625 -5.31515625 0.943125 -4.3828125 0.65625 C-2 0 -2 0 0 0 Z " fill="#214C21" transform="translate(74,122)"/>
<path d="M0 0 C4.05281712 1.22527029 7.44360764 2.69880494 11 5 C10.25749403 9.08378283 9.17076699 13.01939223 8 17 C6.20793453 16.85915204 4.41635083 16.71216299 2.625 16.5625 C1.62726563 16.48128906 0.62953125 16.40007812 -0.3984375 16.31640625 C-3 16 -3 16 -5 15 C-4.54705135 13.24859857 -4.08741252 11.49892656 -3.625 9.75 C-3.36976562 8.77546875 -3.11453125 7.8009375 -2.8515625 6.796875 C-2.10401491 4.34162697 -1.22876183 2.24382595 0 0 Z " fill="#214C21" transform="translate(66,88)"/>
<path d="M0 0 C1.15518918 0.90484792 2.29885406 1.8244206 3.4375 2.75 C4.07558594 3.26046875 4.71367188 3.7709375 5.37109375 4.296875 C7.28069615 6.29348566 7.95856549 7.22388773 8 10 C6.34765625 12.359375 6.34765625 12.359375 4.0625 14.75 C3.31097656 15.54921875 2.55945313 16.3484375 1.78515625 17.171875 C1.19605469 17.77515625 0.60695313 18.3784375 0 19 C-1.48285242 18.04737966 -2.96118201 17.08771595 -4.4375 16.125 C-5.26121094 15.59132813 -6.08492187 15.05765625 -6.93359375 14.5078125 C-9 13 -9 13 -10 11 C-8.89718873 9.72799029 -7.79269231 8.45744147 -6.6875 7.1875 C-6.07261719 6.47980469 -5.45773438 5.77210937 -4.82421875 5.04296875 C-3.26665665 3.29863261 -1.67341125 1.63221959 0 0 Z " fill="#1D491D" transform="translate(68,61)"/>
<path d="M0 0 C5.93002267 -0.37851209 10.47239641 0.89424625 16 3 C15.38385645 4.81552978 14.75681772 6.6273653 14.125 8.4375 C13.77695313 9.44683594 13.42890625 10.45617187 13.0703125 11.49609375 C12 14 12 14 10 15 C6.27206748 14.19955803 2.66399595 13.0651151 -1 12 C-0.67 8.04 -0.34 4.08 0 0 Z " fill="#214C21" transform="translate(117,61)"/>
<path d="M0 0 C3.55225704 1.71435014 6.74021634 3.77742023 10 6 C8.54718935 11.32697239 4.91888622 14.36402802 1 18 C-2.76488042 16.27845212 -5.15063897 14.00765886 -8 11 C-6.63629701 8.00779732 -5.05091917 5.70973471 -2.875 3.25 C-2.33617187 2.63640625 -1.79734375 2.0228125 -1.2421875 1.390625 C-0.62730469 0.70226562 -0.62730469 0.70226562 0 0 Z " fill="#1B481B" transform="translate(158,144)"/>
<path d="M0 0 C3.63559661 3.43361902 6.36113346 6.7973607 9 11 C6.36 13.64 3.72 16.28 1 19 C-3.23679495 15.72611299 -6.39587371 12.79159238 -9 8 C-7.82255415 4.46766245 -7.04394359 4.13691925 -3.9375 2.3125 C-3.20402344 1.87550781 -2.47054687 1.43851563 -1.71484375 0.98828125 C-1.14894531 0.66214844 -0.58304688 0.33601562 0 0 Z " fill="#1C481C" transform="translate(64,141)"/>
<path d="M0 0 C4.38889325 0.66498383 7.9811485 2.18757677 12 4 C10.53967505 9.31027254 8.01679014 13.46330032 5 18 C1.07699728 16.17495091 -1.73787272 13.81729174 -5 11 C-3.55049545 7.2089881 -1.84827434 3.6125362 0 0 Z " fill="#204B20" transform="translate(149,127)"/>
<path d="M0 0 C4.89031872 0.85472385 7.39002068 3.73713408 11 7 C9.35 10.3 7.7 13.6 6 17 C-2.57142857 16 -2.57142857 16 -6 15 C-5.54979057 9.14727744 -2.96160773 4.91779881 0 0 Z " fill="#204B20" transform="translate(83,90)"/>
<path d="M0 0 C5.59282842 1.36410449 8.91193811 4.15383526 13 8 C11.5682479 13.01113235 9.01554307 14.94469549 5 18 C1.7 15.69 -1.6 13.38 -5 11 C-3.35 7.37 -1.7 3.74 0 0 Z " fill="#214C21" transform="translate(135,66)"/>
<path d="M0 0 C3.35829104 1.43714007 5.39970698 3.20977399 7.8125 5.9375 C8.43769531 6.62714844 9.06289062 7.31679687 9.70703125 8.02734375 C10.13371094 8.67832031 10.56039062 9.32929687 11 10 C9.83630874 13.49107379 9.11026462 13.85222763 6.0625 15.6875 C5.35222656 16.12449219 4.64195312 16.56148437 3.91015625 17.01171875 C2 18 2 18 0 18 C-1.7265625 16.03125 -1.7265625 16.03125 -3.625 13.5 C-4.57246094 12.24703125 -4.57246094 12.24703125 -5.5390625 10.96875 C-6.26222656 9.99421875 -6.26222656 9.99421875 -7 9 C-5.27845212 5.23511958 -3.00765886 2.84936103 0 0 Z " fill="#1B481B" transform="translate(158,64)"/>
<path d="M0 0 C2.54384726 1.27192363 2.69368156 2.19948469 3.6875 4.8125 C3.95949219 5.49957031 4.23148438 6.18664062 4.51171875 6.89453125 C5.10174654 9.43873107 5.11594117 10.62741202 4 13 C0.82394757 15.06307679 -2.5411466 16.42381364 -6 18 C-8.31 15.03 -10.62 12.06 -13 9 C-9.28570342 4.82141635 -5.35814198 1.82153171 0 0 Z " fill="#204C20" transform="translate(94,63)"/>
<path d="M0 0 C2.95847985 2.95847985 4.34210853 5.21053378 6 9 C6 9.99 6 10.98 6 12 C0.47239641 14.10575375 -4.06997733 15.37851209 -10 15 C-10 11.04 -10 7.08 -10 3 C-5.05 1.515 -5.05 1.515 0 0 Z " fill="#1F4A1F" transform="translate(122,134)"/>
<path d="M0 0 C3.3 1.98 6.6 3.96 10 6 C8.13033061 10.67417347 7.4948194 11.83490662 3.875 14.8125 C2.78832031 15.71935547 2.78832031 15.71935547 1.6796875 16.64453125 C1.12539062 17.09183594 0.57109375 17.53914063 0 18 C-3.49873271 16.60344703 -4.70891831 15.28739516 -6.25 11.875 C-6.58515625 11.15054688 -6.9203125 10.42609375 -7.265625 9.6796875 C-7.50796875 9.12539062 -7.7503125 8.57109375 -8 8 C-6.625 6.5 -6.625 6.5 -5 5 C-4.34 5 -3.68 5 -3 5 C-2.690625 4.360625 -2.38125 3.72125 -2.0625 3.0625 C-1 1 -1 1 0 0 Z " fill="#1F4B1F" transform="translate(133,125)"/>
<path d="M0 0 C3 3.32142857 3 3.32142857 3 6 C3.66 6 4.32 6 5 6 C4.40716379 9.39192363 3.23256811 11.2107757 0.9375 13.75 C0.38964844 14.36359375 -0.15820312 14.9771875 -0.72265625 15.609375 C-1.14417969 16.06828125 -1.56570312 16.5271875 -2 17 C-9.8049778 10.77740126 -9.8049778 10.77740126 -12 6 C-12 5.01 -12 4.02 -12 3 C-10.75823305 2.29773859 -9.50614401 1.61370891 -8.25 0.9375 C-7.20585938 0.36322266 -7.20585938 0.36322266 -6.140625 -0.22265625 C-3.59769516 -1.14609245 -2.48507822 -1.00034928 0 0 Z " fill="#1F4B1F" transform="translate(92,124)"/>
<path d="M0 0 C1.00732399 1.93370231 2.00563288 3.87210306 3 5.8125 C3.8353125 7.43091797 3.8353125 7.43091797 4.6875 9.08203125 C6 12 6 12 6 15 C1.69214025 16.35148541 -1.41957592 17 -6 17 C-7.65 13.7 -9.3 10.4 -11 7 C-9.54634731 5.82750647 -8.08692581 4.66216184 -6.625 3.5 C-5.40683594 2.52546875 -5.40683594 2.52546875 -4.1640625 1.53125 C-2 0 -2 0 0 0 Z " fill="#1F4B1F" transform="translate(142,90)"/>
<path d="M0 0 C2.68406895 1.7860158 3.75072503 3.71151256 5.328125 6.5078125 C5.84890625 7.41789062 6.3696875 8.32796875 6.90625 9.265625 C7.48632812 10.31363281 7.48632812 10.31363281 8.078125 11.3828125 C4.55379193 14.16641185 1.22076598 15.70982287 -2.921875 17.3828125 C-5.231875 14.0828125 -7.541875 10.7828125 -9.921875 7.3828125 C-2.95380229 -0.94857878 -2.95380229 -0.94857878 0 0 Z " fill="#1F4B1F" transform="translate(151.921875,78.6171875)"/>
<path d="M0 0 C4.23429756 1.31061591 8.07407404 2.94356259 12 5 C11.01 8.63 10.02 12.26 9 16 C2.83543922 15.61471495 -0.98627748 13.52913975 -6 10 C-5.18957164 8.51969728 -4.37659652 7.04078858 -3.5625 5.5625 C-2.88380859 4.32693359 -2.88380859 4.32693359 -2.19140625 3.06640625 C-1 1 -1 1 0 0 Z " fill="#1E4A1E" transform="translate(90,146)"/>
<path d="M0 0 C2.78054295 1.25066262 4.06550431 3.4375995 5.8671875 5.83984375 C6.5271875 6.16984375 7.1871875 6.49984375 7.8671875 6.83984375 C7.26024595 9.99314929 6.225521 12.02873242 4.3046875 14.58984375 C3.84964844 15.2034375 3.39460938 15.81703125 2.92578125 16.44921875 C2.57644531 16.908125 2.22710937 17.36703125 1.8671875 17.83984375 C-1.26138264 16.45167025 -3.41470424 14.82882497 -5.8203125 12.40234375 C-6.42230469 11.80550781 -7.02429688 11.20867187 -7.64453125 10.59375 C-9.1328125 8.83984375 -9.1328125 8.83984375 -10.1328125 5.83984375 C-8.89546266 4.80371342 -7.64236613 3.78636573 -6.3828125 2.77734375 C-5.68671875 2.20886719 -4.990625 1.64039063 -4.2734375 1.0546875 C-2.1328125 -0.16015625 -2.1328125 -0.16015625 0 0 Z " fill="#1E4A1E" transform="translate(80.1328125,136.16015625)"/>
<path d="M0 0 C2.39563005 1.10604694 3.54461515 2.40342519 5.1875 4.45703125 C5.70828125 5.09769531 6.2290625 5.73835937 6.765625 6.3984375 C7.15234375 6.89214844 7.5390625 7.38585937 7.9375 7.89453125 C6.36872326 9.43037565 4.78193846 10.94784456 3.1875 12.45703125 C2.30578125 13.30394531 1.4240625 14.15085938 0.515625 15.0234375 C-2.0625 16.89453125 -2.0625 16.89453125 -4.25 16.8828125 C-6.43257586 15.69274419 -7.15145674 14.70339833 -8.3125 12.51953125 C-8.64765625 11.91367188 -8.9828125 11.3078125 -9.328125 10.68359375 C-10.0625 8.89453125 -10.0625 8.89453125 -10.0625 5.89453125 C-8.453125 4.25390625 -8.453125 4.25390625 -6.3125 2.64453125 C-5.61640625 2.103125 -4.9203125 1.56171875 -4.203125 1.00390625 C-2.0625 -0.10546875 -2.0625 -0.10546875 0 0 Z " fill="#1E491E" transform="translate(143.0625,140.10546875)"/>
<path d="M0 0 C4.69667014 1.56555671 6.77972894 2.27357812 10.375 5.125 C11.06335938 5.66382812 11.75171875 6.20265625 12.4609375 6.7578125 C12.96882813 7.16773437 13.47671875 7.57765625 14 8 C12.27845212 11.76488042 10.00765886 14.15063897 7 17 C3.2089881 15.55049545 -0.3874638 13.84827434 -4 12 C-2.68 8.04 -1.36 4.08 0 0 Z " fill="#1D491D" transform="translate(124,78)"/>
<path d="M0 0 C5.625 4.5 5.625 4.5 8 8 C6.33248852 11.94139078 3.77289351 14.7892812 1 18 C-4.51378886 16.58949587 -5.59389235 15.40610765 -10 11 C-6.7 7.37 -3.4 3.74 0 0 Z " fill="#1C481C" transform="translate(78,73)"/>
<path d="M0 0 C5.10258196 1.35068346 8.23755495 4.63778455 11 9 C11.33 10.65 11.66 12.3 12 14 C8.04 14.99 4.08 15.98 0 17 C-2.0625 14.875 -2.0625 14.875 -4 12 C-3.90235391 7.41063371 -2.18123876 3.98313164 0 0 Z " fill="#244F24" transform="translate(121,93)"/>
<path d="M0 0 C1.13199353 0.9080162 2.25532363 1.82683826 3.375 2.75 C4.00148438 3.26046875 4.62796875 3.7709375 5.2734375 4.296875 C7.12634083 6.1246258 8.10298247 7.56183002 9 10 C8.375 13.1875 8.375 13.1875 6 16 C2.00276595 16.84066659 -1.92306773 16.98735835 -6 17 C-5.70638989 10.52589703 -4.80571463 4.80571463 0 0 Z " fill="#234E23" transform="translate(97,97)"/>
<path d="M0 0 C2.171875 0.0078125 2.171875 0.0078125 4.25 0.5625 C7.37997371 3.76699689 9.25 7.06671576 9.25 11.5625 C4.20899535 13.63060447 -0.37276143 14.02494252 -5.75 13.5625 C-6.41 13.2325 -7.07 12.9025 -7.75 12.5625 C-7.27494322 10.74891846 -6.79483958 8.93665821 -6.3125 7.125 C-6.04566406 6.11566406 -5.77882813 5.10632813 -5.50390625 4.06640625 C-4.33583204 0.18694734 -4.31028613 0.64654292 0 0 Z " fill="#224D22" transform="translate(113.75,120.4375)"/>
<path d="M0 0 C2.4375 2.125 2.4375 2.125 4 5 C3.21563318 9.18328973 1.2970427 12.45002492 -1 16 C-5.88422674 14.60450665 -8.13941697 12.13195327 -11 8 C-11.8125 4.625 -11.8125 4.625 -12 2 C-3.5089568 -0.66385669 -3.5089568 -0.66385669 0 0 Z " fill="#214C21" transform="translate(104,115)"/>
<path d="M0 0 C1.18414294 3.55242882 0.69535532 4.69830562 -0.4375 8.1875 C-0.72496094 9.08855469 -1.01242188 9.98960938 -1.30859375 10.91796875 C-1.53675781 11.60503906 -1.76492187 12.29210937 -2 13 C-4.64 13.33 -7.28 13.66 -10 14 C-11.03325986 12.57140593 -12.05127634 11.13177617 -13.0625 9.6875 C-13.63097656 8.88699219 -14.19945313 8.08648437 -14.78515625 7.26171875 C-15.18605469 6.51535156 -15.58695312 5.76898438 -16 5 C-15.67 4.01 -15.34 3.02 -15 2 C-10.06208162 -0.34551123 -5.33555495 -0.2134222 0 0 Z " fill="#204C20" transform="translate(117,91)"/>
<circle cx="112.5" cy="112.5" r="7.5" fill="#ffffff"/>
</svg>
